<?xml version="1.0" encoding="UTF-8"?>
<svg width="80px" height="80.0000099px" viewBox="0 0 80 80.0000099" version="1.1" xmlns="http://www.w3.org/2000/svg" xmlns:xlink="http://www.w3.org/1999/xlink">
    <title>通用展示型Logo-圆角</title>
    <g id="2.0" stroke="none" stroke-width="1" fill="none" fill-rule="evenodd">
        <g id="LOGO替换-交付标准" transform="translate(-588, -2279)" fill-rule="nonzero">
            <g id="通用展示型Logo-圆角" transform="translate(588, 2279)">
                <g id="编组" transform="translate(0, 0)">
                    <path d="M17.4977572,0 L62.502223,0 C72.1660382,0 79.9999801,7.83394286 79.9999801,17.4977593 L79.9999801,62.5022307 C79.9999801,72.1660472 72.1660382,80 62.502223,80 L17.4977572,80 C7.83394189,80 0,72.1660472 0,62.5022307 L0,17.4977593 C0,7.83394286 7.83394189,0 17.4977572,0 Z" id="路径" fill="#FFFFFF"></path>
                    <g transform="translate(12.5421, 10.8099)">
                        <g transform="translate(15.3032, 29.1933) rotate(-90) translate(-15.3032, -29.1933)translate(-13.8836, 22.6488)" fill="#0091FF" id="矩形">
                            <rect x="0" y="0" width="58.3736115" height="13.0891317" rx="6.54456504"></rect>
                        </g>
                        <rect id="矩形" fill="#FF5500" x="0" y="9.55311117" width="54.9222469" height="13.0891317" rx="6.54456504"></rect>
                        <g transform="translate(39.619, 29.1933) rotate(-90) translate(-39.619, -29.1933)translate(10.4322, 22.6488)" fill="#00C85A" id="矩形">
                            <rect x="0" y="0" width="58.3736115" height="13.0891317" rx="6.54456504"></rect>
                        </g>
                        <g transform="translate(39.619, 29.1933) rotate(-90) translate(-39.619, -29.1933)translate(10.4322, 22.6488)" fill="#00C85A" id="矩形">
                            <rect x="0" y="0" width="58.3736115" height="13.0891317" rx="6.54456504"></rect>
                        </g>
                        <rect id="矩形" fill="#FFBE28" x="0" y="35.744389" width="54.9222469" height="13.0891317" rx="6.54456504"></rect>
                        <g transform="translate(8.7586, 0)" fill="#0091FF" id="路径">
                            <path d="M13.0891298,9.55311237 L13.0891298,6.54456573 C13.0891298,2.93040257 10.1587276,0 6.54456492,0 C2.9304022,0 0,2.93040257 0,6.54456573 L0,9.55311237 L13.0891298,9.55311237 Z"></path>
                            <path d="M0,22.6422367 L0,51.8355582 C0,55.4497214 2.9304022,58.380124 6.54456492,58.380124 C10.1587276,58.380124 13.0891298,55.4497214 13.0891298,51.8355582 L13.0891298,22.6422367 L0,22.6422367 Z"></path>
                        </g>
                    </g>
                </g>
                <path d="M62.502223,0.83353673 C71.6906619,0.83353673 79.1729555,8.30931928 79.1729555,17.5042713 L79.1729555,62.5087427 C79.1729555,71.6971828 71.6971739,79.1794773 62.502223,79.1794773 L17.4977572,79.1794773 C8.30931825,79.1794773 0.82701811,71.7036948 0.82701811,62.5087427 L0.82701811,17.5042713 C0.82701811,8.31583128 8.30280624,0.83353673 17.4977572,0.83353673 L62.502223,0.83353673 Z M62.502223,0 L17.4977572,0 C7.83394189,0 0,7.83394286 0,17.4977593 L0,62.5022307 C0,72.1660472 7.83394189,80 17.4977572,80 L62.502223,80 C72.1660382,80 79.9999801,72.1660472 79.9999801,62.5022307 L79.9999801,17.4977593 C79.9999801,7.83394286 72.1660382,0 62.502223,0 Z" id="形状" fill="#E6E6E6"></path>
            </g>
        </g>
    </g>
</svg>