<svg height="200" viewBox="0 0 200 200" width="200" xmlns="http://www.w3.org/2000/svg"><g fill="none" fill-rule="evenodd"><rect fill="#fff" height="200" rx="30" width="200"/><path d="m28 28h144v144h-144z" fill="#fff"/><g transform="translate(31 28)"><path d="m27 24h84v96h-84z" fill="#198cfe"/><rect fill="#198cfe" height="144" rx="12" width="24" x="27"/><rect fill="#198cfe" height="144" rx="12" width="24" x="87"/><rect fill="#fff" height="15" rx="7.5" width="15" x="45" y="46.5"/><rect fill="#fff" height="15" rx="7.5" width="15" x="78" y="46.5"/><path d="m48 73.5h42v3c0 11.5979797-9.4020203 21-21 21s-21-9.4020203-21-21z" fill="#fff"/><g fill="#198cfe"><path d="m12 24h9v24h-9c-6.627417 0-12-5.372583-12-12s5.372583-12 12-12z" transform="matrix(1 0 0 -1 0 72)"/><path d="m129 24h9v24h-9c-6.627417 0-12-5.372583-12-12s5.372583-12 12-12z" transform="matrix(-1 0 0 -1 255 72)"/><path d="m12 96h9v24h-9c-6.627417 0-12-5.372583-12-12s5.372583-12 12-12z"/><path d="m129 96h9v24h-9c-6.627417 0-12-5.372583-12-12s5.372583-12 12-12z" transform="matrix(-1 0 0 1 255 0)"/></g></g></g></svg>