<svg fill="none" height="16" viewBox="0 0 16 16" width="16" xmlns="http://www.w3.org/2000/svg" xmlns:xlink="http://www.w3.org/1999/xlink"><clipPath id="a"><path d="m0 0h16v16h-16z"/></clipPath><g clip-path="url(#a)" opacity=".85"><path d="m13.33332598 7.33328246c.7363 0 1.3333.59696 1.3333 1.33334v5.33335c0 .7364-.597 1.3333-1.3333 1.3333h-8.6667c-.73638 0-1.33333-.5969-1.33333-1.3333v-5.33335c0-.73638.59695-1.33334 1.33333-1.33334zm0 1.33334h-8.6667v5.33335h8.6667zm-6.00003-7.333336c.73638 0 1.33333.596954 1.33333 1.333336v3.33333h-1.33333v-3.33333h-5.33334v9.99995c-.736376 0-1.33333-.5969-1.33333-1.3333v-8.66665c0-.736382.596954-1.333336 1.33333-1.333336zm3.11666-.2469997c1.28627.4571397 2.41977 1.2636257 3.27337 2.3289957v-1.08133c0-.18409.1492-.333332.3333-.333332h.6667c.1841 0 .3333.149242.3333.333332v3.33267c0 .18409-.1492.33333-.3333.33333h-.836c-.1373-.00098-.26-.08606-.309-.21433-.612-1.53546-1.8285-2.75169-3.36403-3.36334-.12813-.04845-.21328-.17069-.21434-.30766v-.642336c0-.304333.23134-.4636664.45-.3859997z" fill="#fff"/></g></svg>