<?xml version="1.0" standalone="no"?><!DOCTYPE svg PUBLIC "-//W3C//DTD SVG 1.1//EN"
    "http://www.w3.org/Graphics/SVG/1.1/DTD/svg11.dtd">
<svg t="1615967326523" class="icon" viewBox="0 0 1024 1024" version="1.1"
    xmlns="http://www.w3.org/2000/svg" p-id="7794" xmlns:xlink="http://www.w3.org/1999/xlink"
    width="200" height="200">
    <defs>
        <style type="text/css"></style>
    </defs>
    <path
        d="M421.482667 300.8l120.682666-120.661333c83.306667-83.328 218.389333-83.328 301.696 0 83.328 83.306667 83.328 218.389333 0 301.696l-60.330666 60.330666a42.666667 42.666667 0 1 1-60.352-60.330666l60.352-60.352a128 128 0 0 0-177.557334-184.341334l-3.456 3.328-120.682666 120.682667a128 128 0 0 0-3.328 177.557333l3.328 3.456a42.666667 42.666667 0 1 1-60.352 60.352c-83.306667-83.328-83.306667-218.389333 0-301.696z m-181.013334 181.034667a42.666667 42.666667 0 1 1 60.352 60.330666l-60.352 60.352a128 128 0 0 0 177.557334 184.341334l3.456-3.328 120.682666-120.682667a128 128 0 0 0 0-181.013333l-2.154666-2.346667a42.666667 42.666667 0 0 1 62.506666-58.005333c83.306667 83.328 83.306667 218.389333 0 301.696l-120.682666 120.682666c-83.306667 83.328-218.389333 83.328-301.696 0-83.328-83.306667-83.328-218.389333 0-301.696z"
        fill="#363940" p-id="7795"></path>
</svg>