<?xml version="1.0" standalone="no"?><!DOCTYPE svg PUBLIC "-//W3C//DTD SVG 1.1//EN"
    "http://www.w3.org/Graphics/SVG/1.1/DTD/svg11.dtd">
<svg t="1591944827558" class="icon" viewBox="0 0 1024 1024" version="1.1"
    xmlns="http://www.w3.org/2000/svg" p-id="4029" xmlns:xlink="http://www.w3.org/1999/xlink"
    width="200" height="200">
    <defs>
        <style type="text/css"></style>
    </defs>
    <path
        d="M512 85.333333c235.648 0 426.666667 191.018667 426.666667 426.666667s-191.018667 426.666667-426.666667 426.666667S85.333333 747.648 85.333333 512 276.352 85.333333 512 85.333333z m0 85.333334C323.477333 170.666667 170.666667 323.477333 170.666667 512s152.810667 341.333333 341.333333 341.333333 341.333333-152.810667 341.333333-341.333333S700.522667 170.666667 512 170.666667z m-90.517333 190.485333L512 451.669333l90.517333-90.517333a42.666667 42.666667 0 1 1 60.330667 60.330667L572.330667 512l90.517333 90.517333a42.666667 42.666667 0 1 1-60.330667 60.330667L512 572.330667l-90.517333 90.517333a42.666667 42.666667 0 1 1-60.330667-60.330667L451.669333 512l-90.517333-90.517333a42.666667 42.666667 0 1 1 60.330667-60.330667z"
        p-id="4030"></path>
</svg>