<svg height="200" viewBox="0 0 1024 1024" width="200" xmlns="http://www.w3.org/2000/svg">
    <g fill="#363940">
        <path
            d="m512 42.666667c259.2 0 469.333333 210.133333 469.333333 469.333333s-210.133333 469.333333-469.333333 469.333333-469.333333-210.133333-469.333333-469.333333 210.133333-469.333333 469.333333-469.333333zm0 85.333333c-212.074667 0-384 171.925333-384 384s171.925333 384 384 384 384-171.925333 384-384-171.925333-384-384-384z" />
        <path
            d="m690.944 347.584a21.333333 21.333333 0 0 1 30.165333 0l30.165334 30.165333a21.333333 21.333333 0 0 1 0 30.165334l-253.482667 253.546666a21.418667 21.418667 0 0 1 -2.88 3.541334l-30.165333 30.165333a21.333333 21.333333 0 0 1 -30.165334 0l-165.930666-165.930667a21.333333 21.333333 0 0 1 0-30.165333l30.165333-30.186667a21.333333 21.333333 0 0 1 30.165333 0l120.32 120.32z" />
    </g>
</svg>