<?xml version="1.0" standalone="no"?><!DOCTYPE svg PUBLIC "-//W3C//DTD SVG 1.1//EN"
    "http://www.w3.org/Graphics/SVG/1.1/DTD/svg11.dtd">
<svg class="icon" height="200.00px" version="1.1" viewBox="0 0 1024 1024" width="200px"
    xmlns="http://www.w3.org/2000/svg">
    <path
        d="M512 42.666667c259.2 0 469.333333 210.133333 469.333333 469.333333s-210.133333 469.333333-469.333333 469.333333S42.666667 771.2 42.666667 512 252.8 42.666667 512 42.666667z m-120.682667 288.32a21.333333 21.333333 0 0 0-30.165333 0l-30.165333 30.165333a21.333333 21.333333 0 0 0 0 30.165333l120.682666 120.704-120.682666 120.704-1.770667 2.005334a21.333333 21.333333 0 0 0 1.770667 28.16l30.165333 30.186666 2.005333 1.770667a21.333333 21.333333 0 0 0 28.16-1.770667l120.704-120.746666 120.661334 120.682666a21.333333 21.333333 0 0 0 30.165333 0l30.165333-30.165333a21.333333 21.333333 0 0 0 0-30.165333L572.373333 512l120.661334-120.64 1.770666-2.026667a21.333333 21.333333 0 0 0-1.770666-28.16l-30.165334-30.165333-2.005333-1.770667a21.333333 21.333333 0 0 0-28.16 1.770667L512 451.690667z"
        fill="#363940" />
</svg>