<svg t="1650350630888" class="icon" viewBox="0 0 1024 1024" version="1.1"
    xmlns="http://www.w3.org/2000/svg" p-id="7546" width="200" height="200">
    <path
        d="M682.666667 256a42.666667 42.666667 0 0 1 42.666666 42.666667v597.333333a42.666667 42.666667 0 0 1-42.666666 42.666667H170.666667a42.666667 42.666667 0 0 1-42.666667-42.666667V298.666667a42.666667 42.666667 0 0 1 42.666667-42.666667h512z m-42.666667 85.333333H213.333333v512h426.666667V341.333333zM853.333333 85.333333a42.666667 42.666667 0 0 1 42.666667 42.666667v597.333333a42.666667 42.666667 0 0 1-42.666667 42.666667h-42.666666V170.666667H298.666667V128a42.666667 42.666667 0 0 1 42.666666-42.666667h512z"
        fill="#363940" p-id="7547"></path>
</svg>