<?xml version="1.0" standalone="no"?><!DOCTYPE svg PUBLIC "-//W3C//DTD SVG 1.1//EN"
    "http://www.w3.org/Graphics/SVG/1.1/DTD/svg11.dtd">
<svg class="icon" width="200px" height="200.00px" viewBox="0 0 1024 1024" version="1.1"
    xmlns="http://www.w3.org/2000/svg">
    <path
        d="M810.666667 426.666667a42.666667 42.666667 0 0 1 42.56 39.466666L853.333333 469.333333c0 174.058667-130.282667 317.696-298.666666 338.688V938.666667a42.666667 42.666667 0 1 1-85.333334 0v-130.645334C300.949333 787.029333 170.666667 643.413333 170.666667 469.333333l0.106666-3.2a42.666667 42.666667 0 0 1 85.12 0L256 469.333333c0 141.376 114.624 256 256 256 139.2 0 252.458667-111.125333 255.914667-249.493333L768 469.333333l0.106667-3.2A42.666667 42.666667 0 0 1 810.666667 426.666667zM512 42.666667a170.666667 170.666667 0 0 1 170.666667 170.666666v256a170.666667 170.666667 0 1 1-341.333334 0V213.333333a170.666667 170.666667 0 0 1 170.666667-170.666666z m0 85.333333a85.333333 85.333333 0 0 0-85.226667 81.066667L426.666667 213.333333v256a85.333333 85.333333 0 0 0 170.56 4.266667L597.333333 469.333333V213.333333a85.333333 85.333333 0 0 0-85.333333-85.333333z" />
</svg>