<?xml version="1.0" standalone="no"?><!DOCTYPE svg PUBLIC "-//W3C//DTD SVG 1.1//EN"
    "http://www.w3.org/Graphics/SVG/1.1/DTD/svg11.dtd">
<svg t="1621417175486" class="icon" viewBox="0 0 1024 1024" version="1.1"
    xmlns="http://www.w3.org/2000/svg" p-id="5433" xmlns:xlink="http://www.w3.org/1999/xlink"
    width="200" height="200">
    <defs>
        <style type="text/css"></style>
    </defs>
    <path
        d="M225.386667 165.056L512 451.626667 798.613333 165.056a21.333333 21.333333 0 0 1 28.16-1.792l2.005334 1.792 30.165333 30.165333a21.333333 21.333333 0 0 1 0 30.165334L572.330667 512l286.613333 286.613333a21.333333 21.333333 0 0 1 0 30.165334l-30.165333 30.165333a21.333333 21.333333 0 0 1-30.165334 0L512 572.330667 225.386667 858.944a21.333333 21.333333 0 0 1-28.16 1.792l-2.005334-1.792-30.165333-30.165333a21.333333 21.333333 0 0 1 0-30.165334L451.626667 512 165.056 225.386667a21.333333 21.333333 0 0 1 0-30.165334L195.2 165.056a21.333333 21.333333 0 0 1 30.165333 0z"
        fill="#363940" p-id="5434"></path>
</svg>