<?xml version="1.0" standalone="no"?><!DOCTYPE svg PUBLIC "-//W3C//DTD SVG 1.1//EN"
    "http://www.w3.org/Graphics/SVG/1.1/DTD/svg11.dtd">
<svg t="1626336931845" class="icon" viewBox="0 0 1024 1024" version="1.1"
    xmlns="http://www.w3.org/2000/svg" p-id="6077" xmlns:xlink="http://www.w3.org/1999/xlink"
    width="200" height="200">
    <defs>
        <style type="text/css"></style>
    </defs>
    <path
        d="M810.666667 85.333333a128 128 0 0 1 128 128v597.333334a128 128 0 0 1-128 128H213.333333a128 128 0 0 1-128-128V213.333333a128 128 0 0 1 128-128h597.333334z m-81.237334 264.384a21.333333 21.333333 0 0 0-30.165333 0L458.666667 590.314667l-119.893334-119.893334a21.333333 21.333333 0 0 0-30.186666 0l-30.165334 30.144a21.333333 21.333333 0 0 0 0 30.186667l165.930667 165.930667a21.333333 21.333333 0 0 0 30.186667 0l30.165333-30.165334a21.333333 21.333333 0 0 0 3.904-5.376l251.029333-251.093333a21.333333 21.333333 0 0 0 0-30.144z"
        fill="#5562F2" p-id="6078"></path>
</svg>