<svg t="1634711656959" class="icon" viewBox="0 0 1024 1024" version="1.1"
    xmlns="http://www.w3.org/2000/svg" p-id="7154" width="200" height="200">
    <path
        d="M853.333333 85.333333a85.333333 85.333333 0 0 1 85.333334 85.333334v682.666666a85.333333 85.333333 0 0 1-85.333334 85.333334H170.666667a85.333333 85.333333 0 0 1-85.333334-85.333334V170.666667a85.333333 85.333333 0 0 1 85.333334-85.333334h682.666666z m0 42.666667H170.666667a42.666667 42.666667 0 0 0-42.56 39.466667L128 170.666667v682.666666a42.666667 42.666667 0 0 0 39.466667 42.56L170.666667 896h682.666666a42.666667 42.666667 0 0 0 42.56-39.466667L896 853.333333V170.666667a42.666667 42.666667 0 0 0-39.466667-42.56L853.333333 128z"
        fill="#8F959E" opacity=".5" p-id="7155"></path>
</svg>