<svg t="1635837734135" class="icon" viewBox="0 0 1024 1024" version="1.1"
    xmlns="http://www.w3.org/2000/svg" p-id="6994" width="200" height="200">
    <path
        d="M853.333333 85.333333a85.333333 85.333333 0 0 1 85.333334 85.333334v682.666666a85.333333 85.333333 0 0 1-85.333334 85.333334H170.666667a85.333333 85.333333 0 0 1-85.333334-85.333334V170.666667a85.333333 85.333333 0 0 1 85.333334-85.333334h682.666666z m-132.586666 268.565334a12.458667 12.458667 0 0 0-15.872 1.429333L454.592 605.589333l-126.336-126.336a12.437333 12.437333 0 0 0-17.6 0l-26.389333 26.389334a12.437333 12.437333 0 0 0 0 17.6l158.4 158.4a12.437333 12.437333 0 0 0 13.525333 2.709333 12.437333 12.437333 0 0 0 11.093333-3.434667l281.578667-281.6 1.429333-1.706666a12.458667 12.458667 0 0 0-1.429333-15.872l-26.389333-26.410667z"
        fill="#5562F2" p-id="6995"></path>
</svg>