<?xml version="1.0" standalone="no"?><!DOCTYPE svg PUBLIC "-//W3C//DTD SVG 1.1//EN"
    "http://www.w3.org/Graphics/SVG/1.1/DTD/svg11.dtd">
<svg t="1611804988038" class="icon" viewBox="0 0 1024 1024" version="1.1"
    xmlns="http://www.w3.org/2000/svg" p-id="5968" xmlns:xlink="http://www.w3.org/1999/xlink"
    width="200" height="200">
    <defs>
        <style type="text/css"></style>
    </defs>
    <path
        d="M263.104 217.749333l248.874667 248.896 248.917333-248.896a21.333333 21.333333 0 0 1 28.16-1.770666l2.005333 1.770666 15.104 15.082667a21.333333 21.333333 0 0 1 0 30.165333L557.226667 511.893333 806.186667 760.810667a21.333333 21.333333 0 0 1 0 30.165333l-15.104 15.082667a21.333333 21.333333 0 0 1-30.165334 0L512 557.162667 263.104 806.058667a21.333333 21.333333 0 0 1-28.16 1.770666l-2.005333-1.770666-15.104-15.082667a21.333333 21.333333 0 0 1 0-30.165333l248.896-248.917334-248.896-248.896a21.333333 21.333333 0 0 1 0-30.165333l15.104-15.082667a21.333333 21.333333 0 0 1 30.165333 0z"
        fill="#1F2329" p-id="5969"></path>
</svg>