<?xml version="1.0" standalone="no"?><!DOCTYPE svg PUBLIC "-//W3C//DTD SVG 1.1//EN"
    "http://www.w3.org/Graphics/SVG/1.1/DTD/svg11.dtd">
<svg t="1626332307808" class="icon" viewBox="0 0 1024 1024" version="1.1"
    xmlns="http://www.w3.org/2000/svg" p-id="8591" xmlns:xlink="http://www.w3.org/1999/xlink"
    width="200" height="200">
    <defs>
        <style type="text/css"></style>
    </defs>
    <path
        d="M810.666667 85.333333a128 128 0 0 1 128 128v597.333334a128 128 0 0 1-128 128H213.333333a128 128 0 0 1-128-128V213.333333a128 128 0 0 1 128-128h597.333334z m0 42.666667H213.333333a85.333333 85.333333 0 0 0-85.226666 81.066667L128 213.333333v597.333334a85.333333 85.333333 0 0 0 81.066667 85.226666L213.333333 896h597.333334a85.333333 85.333333 0 0 0 85.226666-81.066667L896 810.666667V213.333333a85.333333 85.333333 0 0 0-81.066667-85.226666L810.666667 128z"
        fill="#8F959E" opacity=".5" p-id="8592"></path>
</svg>